<svg width="67" height="66" viewBox="0 0 67 66" fill="none" xmlns="http://www.w3.org/2000/svg">
<circle opacity="0.2" cx="33.8178" cy="32.9996" r="32.8365" fill="white"/>
<path d="M49.8652 33.3213C49.8652 35.3855 49.8652 37.4498 49.8652 39.514C49.7875 44.6968 47.1573 48.1372 42.03 48.5478C36.8268 48.9277 31.6018 48.8943 26.4039 48.4479C21.7428 48.0706 18.9682 44.6191 18.8795 39.9357C18.7981 35.5557 18.7981 31.1683 18.8795 26.7734C18.9793 21.8126 21.9869 18.3944 26.9477 18.1614C32.2193 17.9061 37.5131 17.9727 42.7846 18.228C46.7022 18.4277 49.7764 22.1789 49.8985 26.3628C49.8985 28.6823 49.8985 31.0018 49.8985 33.3213H49.8652ZM34.3279 45.8732V45.7289C36.4477 45.7289 38.5674 45.7289 40.6871 45.7289C44.4937 45.7289 46.7688 43.5093 46.8243 39.7471C46.8909 35.663 46.8243 31.5789 46.8243 27.5392C46.8312 26.5336 46.6776 25.5333 46.3693 24.576C45.3261 21.6462 42.8068 21.0802 40.1322 21.0358C36.148 20.9581 32.1638 20.9803 28.1796 21.0358C24.1954 21.0912 22.0424 23.0667 21.9203 26.9066C21.765 31.4901 21.9203 36.0847 22.0091 40.6682C21.9694 41.8268 22.364 42.9585 23.1154 43.8413C23.8668 44.7241 24.9209 45.2944 26.071 45.4404C28.7678 45.7289 31.5645 45.7289 34.3168 45.8732H34.3279Z" fill="white"/>
<path d="M34.2618 25.3746C35.3201 25.354 36.3721 25.543 37.3571 25.9308C38.342 26.3186 39.2406 26.8974 40.0008 27.634C40.7611 28.3705 41.3682 29.2502 41.7869 30.2224C42.2057 31.1946 42.428 32.2401 42.441 33.2986C42.4124 35.4375 41.5515 37.481 40.0411 38.9957C38.5306 40.5103 36.4894 41.3768 34.3505 41.4112C32.2136 41.3769 30.174 40.5119 28.6638 38.9997C27.1537 37.4874 26.2915 35.4466 26.2601 33.3097C26.2834 31.2009 27.136 29.186 28.6335 27.701C30.1309 26.216 32.1528 25.3803 34.2618 25.3746ZM39.3336 33.3541C39.3395 32.0363 38.8232 30.7698 37.8976 29.8318C36.9721 28.8938 35.7127 28.3606 34.3949 28.3488C33.0505 28.3488 31.7604 28.879 30.8046 29.8244C29.8487 30.7698 29.3044 32.0541 29.2898 33.3984C29.3461 34.7171 29.9034 35.9646 30.8479 36.8864C31.7925 37.8083 33.0531 38.335 34.3727 38.3593C35.6916 38.3447 36.9516 37.8113 37.8801 36.8745C38.8086 35.9377 39.3307 34.673 39.3336 33.3541Z" fill="white"/>
<path d="M44.5938 25.1198C44.6047 25.3739 44.5628 25.6275 44.4709 25.8646C44.379 26.1017 44.2389 26.3173 44.0596 26.4976C43.8803 26.678 43.6656 26.8193 43.429 26.9126C43.1924 27.0059 42.9391 27.0492 42.6849 27.0397C42.4334 27.0723 42.1779 27.0495 41.9361 26.973C41.6944 26.8965 41.4722 26.7682 41.2851 26.597C41.0981 26.4258 40.9507 26.2159 40.8531 25.9818C40.7556 25.7477 40.7104 25.4952 40.7205 25.2419C40.6937 24.9796 40.7248 24.7147 40.8117 24.4659C40.8986 24.217 41.0392 23.9904 41.2234 23.8019C41.4077 23.6134 41.6311 23.4677 41.8779 23.3752C42.1247 23.2826 42.3888 23.2455 42.6516 23.2664C42.902 23.256 43.1519 23.2961 43.3864 23.3844C43.6209 23.4727 43.8352 23.6074 44.0165 23.7804C44.1978 23.9534 44.3423 24.1612 44.4415 24.3913C44.5407 24.6214 44.5925 24.8692 44.5938 25.1198Z" fill="white"/>
</svg>
