<svg width="67" height="66" viewBox="0 0 67 66" fill="none" xmlns="http://www.w3.org/2000/svg">
<circle opacity="0.2" cx="33.4906" cy="32.9996" r="32.8365" fill="white"/>
<path d="M35.657 46.0175H30.0303V28.871H34.8468L35.2242 30.8354C35.4305 30.7368 35.6242 30.6138 35.8013 30.4692C36.6509 29.5191 37.7694 28.85 39.0083 28.5507C40.2472 28.2514 41.5479 28.336 42.7375 28.7934C43.8589 29.1615 44.8336 29.8776 45.5201 30.8375C46.2067 31.7975 46.5693 32.9514 46.5553 34.1315C46.7772 38.038 46.6107 41.9778 46.6107 45.9953H41.1394C41.1394 43.0987 41.1394 40.2465 41.1394 37.3832C41.1525 36.7327 41.1042 36.0825 40.9951 35.4411C40.5623 33.4878 39.5968 32.6111 38.1207 32.7554C37.3675 32.8988 36.6962 33.3216 36.2414 33.939C35.7865 34.5564 35.5818 35.3228 35.6681 36.0848C35.6681 38.8149 35.6681 41.5339 35.6681 44.264L35.657 46.0175Z" fill="white"/>
<path d="M21.8398 28.2275H27.1779V45.9844H21.8398V28.2275Z" fill="white"/>
<path d="M27.2664 23.9985C27.2973 24.3621 27.2496 24.728 27.1265 25.0715C27.0034 25.4149 26.8078 25.7278 26.553 25.989C26.2982 26.2501 25.9902 26.4533 25.6498 26.5848C25.3095 26.7162 24.9448 26.7729 24.5807 26.7508C24.2174 26.7869 23.8507 26.7457 23.5045 26.6299C23.1584 26.5141 22.8407 26.3263 22.5723 26.0789C22.3039 25.8315 22.091 25.5301 21.9474 25.1945C21.8039 24.8589 21.7331 24.4967 21.7396 24.1317C21.7162 23.7543 21.7719 23.3761 21.903 23.0214C22.0341 22.6666 22.2378 22.3432 22.501 22.0716C22.7642 21.8001 23.0811 21.5864 23.4316 21.4443C23.782 21.3022 24.1583 21.2347 24.5363 21.2462C24.9014 21.2285 25.2661 21.2878 25.6069 21.4201C25.9476 21.5525 26.2567 21.755 26.5141 22.0145C26.7715 22.274 26.9715 22.5848 27.1011 22.9266C27.2307 23.2684 27.287 23.6336 27.2664 23.9985Z" fill="white"/>
</svg>
